<?xml version="1.0" encoding="UTF-8" standalone="no"?>
<!DOCTYPE svg PUBLIC "-//W3C//DTD SVG 1.1//EN"
 "http://www.w3.org/Graphics/SVG/1.1/DTD/svg11.dtd">
<!-- Generated by graphviz version 2.44.1 (20200629.0846)
 -->
<!-- Pages: 1 -->
<svg width="588pt" height="548pt"
 viewBox="0.00 0.00 587.78 548.00" xmlns="http://www.w3.org/2000/svg" xmlns:xlink="http://www.w3.org/1999/xlink">
<g id="graph0" class="graph" transform="scale(1 1) rotate(0) translate(4 544)">
<polygon fill="white" stroke="transparent" points="-4,4 -4,-544 583.78,-544 583.78,4 -4,4"/>
<!-- [root] aws_eip.bar -->
<g id="node1" class="node">
<title>[root] aws_eip.bar</title>
<polygon fill="none" stroke="black" points="366.13,-396 284.13,-396 284.13,-360 366.13,-360 366.13,-396"/>
<text text-anchor="middle" x="325.13" y="-374.3" font-family="Times,serif" font-size="14.00">aws_eip.bar</text>
</g>
<!-- [root] aws_instance.foo -->
<g id="node2" class="node">
<title>[root] aws_instance.foo</title>
<polygon fill="none" stroke="black" points="380.13,-324 270.13,-324 270.13,-288 380.13,-288 380.13,-324"/>
<text text-anchor="middle" x="325.13" y="-302.3" font-family="Times,serif" font-size="14.00">aws_instance.foo</text>
</g>
<!-- [root] aws_eip.bar&#45;&gt;[root] aws_instance.foo -->
<g id="edge1" class="edge">
<title>[root] aws_eip.bar&#45;&gt;[root] aws_instance.foo</title>
<path fill="none" stroke="black" d="M325.13,-359.7C325.13,-351.98 325.13,-342.71 325.13,-334.11"/>
<polygon fill="black" stroke="black" points="328.63,-334.1 325.13,-324.1 321.63,-334.1 328.63,-334.1"/>
</g>
<!-- [root] aws_subnet.tf_test_subnet -->
<g id="node4" class="node">
<title>[root] aws_subnet.tf_test_subnet</title>
<polygon fill="none" stroke="black" points="404.63,-252 245.63,-252 245.63,-216 404.63,-216 404.63,-252"/>
<text text-anchor="middle" x="325.13" y="-230.3" font-family="Times,serif" font-size="14.00">aws_subnet.tf_test_subnet</text>
</g>
<!-- [root] aws_instance.foo&#45;&gt;[root] aws_subnet.tf_test_subnet -->
<g id="edge2" class="edge">
<title>[root] aws_instance.foo&#45;&gt;[root] aws_subnet.tf_test_subnet</title>
<path fill="none" stroke="black" d="M325.13,-287.7C325.13,-279.98 325.13,-270.71 325.13,-262.11"/>
<polygon fill="black" stroke="black" points="328.63,-262.1 325.13,-252.1 321.63,-262.1 328.63,-262.1"/>
</g>
<!-- [root] aws_internet_gateway.gw -->
<g id="node3" class="node">
<title>[root] aws_internet_gateway.gw</title>
<polygon fill="none" stroke="black" points="403.63,-180 246.63,-180 246.63,-144 403.63,-144 403.63,-180"/>
<text text-anchor="middle" x="325.13" y="-158.3" font-family="Times,serif" font-size="14.00">aws_internet_gateway.gw</text>
</g>
<!-- [root] aws_vpc.default -->
<g id="node5" class="node">
<title>[root] aws_vpc.default</title>
<polygon fill="none" stroke="black" points="377.63,-108 272.63,-108 272.63,-72 377.63,-72 377.63,-108"/>
<text text-anchor="middle" x="325.13" y="-86.3" font-family="Times,serif" font-size="14.00">aws_vpc.default</text>
</g>
<!-- [root] aws_internet_gateway.gw&#45;&gt;[root] aws_vpc.default -->
<g id="edge3" class="edge">
<title>[root] aws_internet_gateway.gw&#45;&gt;[root] aws_vpc.default</title>
<path fill="none" stroke="black" d="M325.13,-143.7C325.13,-135.98 325.13,-126.71 325.13,-118.11"/>
<polygon fill="black" stroke="black" points="328.63,-118.1 325.13,-108.1 321.63,-118.1 328.63,-118.1"/>
</g>
<!-- [root] aws_subnet.tf_test_subnet&#45;&gt;[root] aws_internet_gateway.gw -->
<g id="edge4" class="edge">
<title>[root] aws_subnet.tf_test_subnet&#45;&gt;[root] aws_internet_gateway.gw</title>
<path fill="none" stroke="black" d="M325.13,-215.7C325.13,-207.98 325.13,-198.71 325.13,-190.11"/>
<polygon fill="black" stroke="black" points="328.63,-190.1 325.13,-180.1 321.63,-190.1 328.63,-190.1"/>
</g>
<!-- [root] provider.aws -->
<g id="node6" class="node">
<title>[root] provider.aws</title>
<polygon fill="none" stroke="black" points="325.13,-36 246.04,-18 325.13,0 404.23,-18 325.13,-36"/>
<text text-anchor="middle" x="325.13" y="-14.3" font-family="Times,serif" font-size="14.00">provider.aws</text>
</g>
<!-- [root] aws_vpc.default&#45;&gt;[root] provider.aws -->
<g id="edge5" class="edge">
<title>[root] aws_vpc.default&#45;&gt;[root] provider.aws</title>
<path fill="none" stroke="black" d="M325.13,-71.7C325.13,-63.98 325.13,-54.71 325.13,-46.11"/>
<polygon fill="black" stroke="black" points="328.63,-46.1 325.13,-36.1 321.63,-46.1 328.63,-46.1"/>
</g>
<!-- [root] meta.count&#45;boundary (EachMode fixup) -->
<g id="node7" class="node">
<title>[root] meta.count&#45;boundary (EachMode fixup)</title>
<ellipse fill="none" stroke="black" cx="176.13" cy="-450" rx="176.27" ry="18"/>
<text text-anchor="middle" x="176.13" y="-446.3" font-family="Times,serif" font-size="14.00">[root] meta.count&#45;boundary (EachMode fixup)</text>
</g>
<!-- [root] meta.count&#45;boundary (EachMode fixup)&#45;&gt;[root] aws_eip.bar -->
<g id="edge6" class="edge">
<title>[root] meta.count&#45;boundary (EachMode fixup)&#45;&gt;[root] aws_eip.bar</title>
<path fill="none" stroke="black" d="M211.82,-432.23C232.16,-422.68 257.86,-410.61 279.64,-400.38"/>
<polygon fill="black" stroke="black" points="281.14,-403.54 288.7,-396.12 278.16,-397.2 281.14,-403.54"/>
</g>
<!-- [root] provider.aws (close) -->
<g id="node8" class="node">
<title>[root] provider.aws (close)</title>
<ellipse fill="none" stroke="black" cx="475.13" cy="-450" rx="104.78" ry="18"/>
<text text-anchor="middle" x="475.13" y="-446.3" font-family="Times,serif" font-size="14.00">[root] provider.aws (close)</text>
</g>
<!-- [root] provider.aws (close)&#45;&gt;[root] aws_eip.bar -->
<g id="edge7" class="edge">
<title>[root] provider.aws (close)&#45;&gt;[root] aws_eip.bar</title>
<path fill="none" stroke="black" d="M440.72,-432.94C420.06,-423.3 393.52,-410.91 371.08,-400.44"/>
<polygon fill="black" stroke="black" points="372.29,-397.14 361.74,-396.08 369.33,-403.48 372.29,-397.14"/>
</g>
<!-- [root] root -->
<g id="node9" class="node">
<title>[root] root</title>
<ellipse fill="none" stroke="black" cx="325.13" cy="-522" rx="47.39" ry="18"/>
<text text-anchor="middle" x="325.13" y="-518.3" font-family="Times,serif" font-size="14.00">[root] root</text>
</g>
<!-- [root] root&#45;&gt;[root] meta.count&#45;boundary (EachMode fixup) -->
<g id="edge8" class="edge">
<title>[root] root&#45;&gt;[root] meta.count&#45;boundary (EachMode fixup)</title>
<path fill="none" stroke="black" d="M296.41,-507.5C274.96,-497.43 245.25,-483.47 220.73,-471.95"/>
<polygon fill="black" stroke="black" points="222.15,-468.75 211.61,-467.67 219.17,-475.09 222.15,-468.75"/>
</g>
<!-- [root] root&#45;&gt;[root] provider.aws (close) -->
<g id="edge9" class="edge">
<title>[root] root&#45;&gt;[root] provider.aws (close)</title>
<path fill="none" stroke="black" d="M354.06,-507.5C376.02,-497.25 406.6,-482.98 431.53,-471.35"/>
<polygon fill="black" stroke="black" points="433.2,-474.43 440.78,-467.03 430.24,-468.09 433.2,-474.43"/>
</g>
</g>
</svg>
